# xmcd CD database file
#
# Track frame offsets:
#	150
#	42451
#	83980
#	136345
#	174733
#
# Disc length: 3185 seconds
#
# Revision: 0
# Processed by: cddbd v1.5.2PL0 Copyright (c) Steve Scherf et al.
# Submitted via: CDex 1.70beta2
#
DISCID=400c6f05
DTITLE=Rama Dhan - Mantra אי של שקט
DYEAR=2002
DGENRE=New Age
TTITLE0=Bhairavi
TTITLE1=By the Sea
TTITLE2=Minor Longing
TTITLE3=Shantiqa
TTITLE4=Sufi
EXTD=YEAR: 2002
EXTT0=
EXTT1=
EXTT2=
EXTT3=
EXTT4=
PLAYORDER=
